<svg width="32" height="32" viewBox="0 0 32 32" fill="none" xmlns="http://www.w3.org/2000/svg">
<circle cx="16" cy="16" r="16" fill="#F6EFFE"/>
<g clip-path="url(#clip0_1059_34953)">
<mask id="mask0_1059_34953" style="mask-type:luminance" maskUnits="userSpaceOnUse" x="8" y="8" width="16" height="17">
<path d="M24 8.5H8V24.5H24V8.5Z" fill="white"/>
</mask>
<g mask="url(#mask0_1059_34953)">
<path d="M16.2461 14.4209H19.7461" stroke="#7919EF" stroke-linecap="round" stroke-linejoin="round"/>
<path d="M12.2529 14.4209L12.7529 14.9209L14.2529 13.4209" stroke="#7919EF" stroke-linecap="round" stroke-linejoin="round"/>
<path d="M16.2461 19.0874H19.7461" stroke="#7919EF" stroke-linecap="round" stroke-linejoin="round"/>
<path d="M12.2529 19.0874L12.7529 19.5874L14.2529 18.0874" stroke="#7919EF" stroke-linecap="round" stroke-linejoin="round"/>
<path d="M13.9997 23.1668H17.9997C21.333 23.1668 22.6663 21.8335 22.6663 18.5002V14.5002C22.6663 11.1668 21.333 9.8335 17.9997 9.8335H13.9997C10.6663 9.8335 9.33301 11.1668 9.33301 14.5002V18.5002C9.33301 21.8335 10.6663 23.1668 13.9997 23.1668Z" stroke="#7919EF" stroke-linecap="round" stroke-linejoin="round"/>
</g>
</g>
<defs>
<clipPath id="clip0_1059_34953">
<rect width="16" height="16" fill="white" transform="translate(8 8.5)"/>
</clipPath>
</defs>
</svg>
