<svg width="60" height="60" viewBox="0 0 60 60" fill="none" xmlns="http://www.w3.org/2000/svg">
<circle cx="30" cy="30" r="30" fill="#CEF5DB"/>
<g clip-path="url(#clip0_1059_37241)">
<g clip-path="url(#clip1_1059_37241)">
<mask id="mask0_1059_37241" style="mask-type:luminance" maskUnits="userSpaceOnUse" x="15" y="15" width="30" height="30">
<path d="M45 15H15V45H45V15Z" fill="white"/>
</mask>
<g mask="url(#mask0_1059_37241)">
<path d="M30 43.4375C22.5875 43.4375 16.5625 37.4125 16.5625 30C16.5625 22.5875 22.5875 16.5625 30 16.5625C37.4125 16.5625 43.4375 22.5875 43.4375 30C43.4375 37.4125 37.4125 43.4375 30 43.4375ZM30 18.4375C23.625 18.4375 18.4375 23.625 18.4375 30C18.4375 36.375 23.625 41.5625 30 41.5625C36.375 41.5625 41.5625 36.375 41.5625 30C41.5625 23.625 36.375 18.4375 30 18.4375Z" fill="#00A64C"/>
<path d="M28.2248 34.4745C27.9748 34.4745 27.7373 34.3745 27.5623 34.1995L24.0248 30.662C23.6623 30.2995 23.6623 29.6995 24.0248 29.337C24.3873 28.9745 24.9873 28.9745 25.3498 29.337L28.2248 32.212L34.6498 25.787C35.0123 25.4245 35.6123 25.4245 35.9748 25.787C36.3373 26.1495 36.3373 26.7495 35.9748 27.112L28.8873 34.1995C28.7123 34.3745 28.4748 34.4745 28.2248 34.4745Z" fill="#00A64C"/>
</g>
</g>
</g>
<defs>
<clipPath id="clip0_1059_37241">
<rect width="30" height="30" fill="white" transform="translate(15 15)"/>
</clipPath>
<clipPath id="clip1_1059_37241">
<rect width="30" height="30" fill="white" transform="translate(15 15)"/>
</clipPath>
</defs>
</svg>
