<svg width="18" height="18" viewBox="0 0 18 18" fill="none" xmlns="http://www.w3.org/2000/svg">
<g clip-path="url(#clip0_1450_11612)">
<mask id="mask0_1450_11612" style="mask-type:luminance" maskUnits="userSpaceOnUse" x="0" y="0" width="18" height="18">
<path d="M18 0H0V18H18V0Z" fill="white"/>
</mask>
<g mask="url(#mask0_1450_11612)">
<path d="M15.7627 5.99381C16.0611 6.41875 15.7054 6.9375 15.1861 6.9375H2.25C1.83579 6.9375 1.5 6.60171 1.5 6.1875V4.815C1.5 2.985 2.985 1.5 4.815 1.5H6.555C7.7775 1.5 8.16 1.8975 8.6475 2.55L9.6975 3.945C9.93 4.2525 9.96 4.29 10.395 4.29H12.4875C13.841 4.29 15.0387 4.96282 15.7627 5.99381Z" fill="#D73033"/>
<path d="M16.4876 8.80995C16.4861 8.39678 16.1507 8.0625 15.7376 8.0625L2.24998 8.06273C1.83578 8.06273 1.5 8.3985 1.5 8.81273V12.4877C1.5 14.7002 3.3 16.5002 5.5125 16.5002H12.4875C14.7 16.5002 16.5 14.7002 16.5 12.4877L16.4876 8.80995ZM10.755 13.7102C10.6425 13.8152 10.5 13.8752 10.3575 13.8752C10.215 13.8752 10.065 13.8152 9.96 13.7102L9.03 12.7802L8.07 13.7402C7.965 13.8452 7.815 13.9052 7.6725 13.9052C7.53 13.9052 7.3875 13.8452 7.275 13.7402C7.0575 13.5227 7.0575 13.1627 7.275 12.9452L8.235 11.9852L7.305 11.0552C7.0875 10.8377 7.0875 10.4777 7.305 10.2602C7.53 10.0427 7.8825 10.0427 8.1 10.2602L9.03 11.1902L9.93 10.2902C10.1475 10.0727 10.5 10.0727 10.725 10.2902C10.9425 10.5152 10.9425 10.8677 10.725 11.0852L9.825 11.9852L10.755 12.9152C10.9725 13.1327 10.9725 13.4927 10.755 13.7102Z" fill="#D73033"/>
</g>
</g>
<defs>
<clipPath id="clip0_1450_11612">
<rect width="18" height="18" fill="white"/>
</clipPath>
</defs>
</svg>
