<svg width="44" height="44" viewBox="0 0 44 44" fill="none" xmlns="http://www.w3.org/2000/svg">
<g clip-path="url(#clip0_641_334)">
<path d="M22 44C34.1503 44 44 34.1503 44 22C44 9.84974 34.1503 0 22 0C9.84974 0 0 9.84974 0 22C0 34.1503 9.84974 44 22 44Z" fill="#121E2C"/>
<path d="M31.0879 12.8889H12.9131V31.1128H31.0879V12.8889Z" fill="#F1F5F7"/>
<path d="M22.001 23.917L31.0881 31.1125V16.907L22.001 23.917Z" fill="#DCE6EA"/>
<path d="M31.8449 12.8889H31.0876L22.0004 20.0844L12.9128 12.8889H12.1556C10.9016 12.8889 9.88379 13.9093 9.88379 15.1669V28.8347C9.88379 30.092 10.9016 31.1127 12.1556 31.1127H12.9128V16.9072L22.0004 23.9157L31.0876 16.9055V31.1127H31.8449C33.0991 31.1127 34.1169 30.092 34.1169 28.8347V15.1669C34.117 13.9094 33.0991 12.8889 31.8449 12.8889Z" fill="#F84437"/>
</g>
<defs>
<clipPath id="clip0_641_334">
<rect width="44" height="44" fill="white"/>
</clipPath>
</defs>
</svg>
