<svg width="44" height="44" viewBox="0 0 44 44" fill="none" xmlns="http://www.w3.org/2000/svg">
<g clip-path="url(#clip0_645_358)">
<path d="M22 44C34.1503 44 44 34.1503 44 22C44 9.84974 34.1503 0 22 0C9.84974 0 0 9.84974 0 22C0 34.1503 9.84974 44 22 44Z" fill="#F4F5F6"/>
<g clip-path="url(#clip1_645_358)">
<path d="M20.7312 34.3707C19.2804 34.2771 17.7724 33.8507 16.4308 33.1539C15.162 32.4883 15.1516 32.4883 14.9384 32.5455C14.8344 32.5715 14.4756 32.6703 14.148 32.7639C13.2484 33.0135 12.3956 33.2319 12.016 33.3099C11.8288 33.3515 11.5428 33.4295 11.3816 33.4867C11.2152 33.5491 11.0228 33.5959 10.9552 33.5959C10.8824 33.5959 10.768 33.6167 10.6952 33.6479C10.5808 33.6895 10.5496 33.6791 10.4768 33.5699C10.404 33.4555 10.404 33.4139 10.5028 33.0395C10.56 32.8159 10.6224 32.5767 10.6432 32.5039C10.6952 32.2855 10.9032 31.5419 11.21 30.4603C11.6104 29.0615 11.6104 29.0459 11.158 28.2919C10.4092 27.0283 9.85282 25.6399 9.59282 24.3919C9.33282 23.1335 9.31202 21.1003 9.54602 19.8419C9.67082 19.1555 10.1128 17.5903 10.3364 17.0391C10.9084 15.6299 11.7768 14.3403 12.952 13.1547C13.9764 12.1251 15.1308 11.2931 16.4048 10.6639C17.6164 10.0659 18.4952 9.77992 19.946 9.51472C20.7208 9.37432 22.39 9.32232 23.1908 9.41072C24.132 9.51992 25.7596 9.89432 26.2848 10.1179C26.3732 10.1543 26.6332 10.2635 26.862 10.3623C27.772 10.7367 28.8328 11.3867 29.722 12.1043C32.53 14.3663 34.1992 17.6319 34.4228 21.2979C34.5892 24.0071 33.9392 26.5135 32.504 28.6611C31.1364 30.7047 29.4984 32.1763 27.486 33.1539C25.3072 34.2147 23.4716 34.5423 20.7312 34.3707Z" fill="#02E677"/>
<path d="M25.5099 28.9372C25.4527 28.9268 25.2707 28.88 25.1043 28.8332C24.9431 28.7916 24.6779 28.7344 24.5219 28.7084C24.3659 28.6824 24.1631 28.6252 24.0695 28.5836C23.9759 28.542 23.7835 28.4796 23.6379 28.4432C23.4975 28.412 23.3311 28.3548 23.2739 28.3184C23.2167 28.2872 23.0763 28.2248 22.9619 28.1884C22.8475 28.152 22.6499 28.0688 22.5199 28.0012C22.3899 27.9336 22.2495 27.8764 22.1975 27.8764C22.1507 27.8764 22.0727 27.84 22.0259 27.7932C21.9791 27.7464 21.8647 27.6788 21.7763 27.6476C21.6359 27.5956 21.2927 27.4188 21.0119 27.2472C20.9703 27.2212 20.8507 27.1536 20.7467 27.1016C20.6479 27.0444 20.5335 26.9612 20.4971 26.9196C20.4555 26.8728 20.3931 26.8364 20.3567 26.8364C20.3151 26.8364 20.2423 26.7948 20.1903 26.748C20.1383 26.696 19.9563 26.5608 19.7847 26.4464C19.2907 26.1188 18.9163 25.786 17.8919 24.7564C16.7531 23.6228 16.2123 22.9936 15.7547 22.2864C15.6819 22.172 15.5779 22.0108 15.5207 21.9276C15.2399 21.5116 14.7199 20.5288 14.7199 20.4196C14.7199 20.378 14.6835 20.3208 14.6419 20.2844C14.6003 20.248 14.5483 20.1388 14.5327 20.0296C14.5119 19.9256 14.4391 19.6916 14.3663 19.5044C14.2519 19.1976 14.2363 19.0936 14.2363 18.3604C14.2311 17.5804 14.2415 17.5388 14.4027 17.0604C14.4963 16.79 14.6055 16.53 14.6471 16.4832C14.6887 16.4416 14.7199 16.3844 14.7199 16.3584C14.7199 16.2752 15.1931 15.6044 15.4167 15.3704C15.6091 15.1676 15.7495 15.0688 16.1759 14.84C16.3631 14.7412 17.4343 14.7464 17.6267 14.8504C17.8243 14.9492 18.0115 15.178 18.1467 15.4848C18.2143 15.62 18.3183 15.854 18.3859 15.9944C18.4535 16.14 18.5679 16.3844 18.6407 16.5404C18.7135 16.6964 18.7759 16.8576 18.7759 16.894C18.7759 16.9304 18.8227 17.05 18.8799 17.154C19.1451 17.6532 19.2647 18.0224 19.2855 18.454C19.3011 18.8856 19.3011 18.8908 19.1035 19.182C18.9943 19.3432 18.8643 19.5148 18.8175 19.5668C18.7655 19.6188 18.7239 19.676 18.7239 19.702C18.7239 19.7228 18.6199 19.8528 18.4899 19.988C17.9959 20.5028 18.0219 20.846 18.6199 21.7144C19.1763 22.5152 19.9095 23.3056 20.6427 23.8984C20.8507 24.07 21.0795 24.2624 21.1523 24.33C21.2199 24.3924 21.2979 24.4444 21.3187 24.4444C21.3395 24.4444 21.4019 24.4912 21.4487 24.5432C21.5007 24.6004 21.6151 24.6732 21.7035 24.7096C21.7971 24.746 21.9063 24.8032 21.9479 24.8396C22.0571 24.928 22.6759 25.2556 22.8319 25.3024C22.9047 25.3232 22.9931 25.3648 23.0295 25.396C23.0711 25.4272 23.2531 25.5052 23.4403 25.5728C23.7575 25.682 23.7835 25.682 23.9135 25.604C24.0695 25.5104 24.7351 24.8292 25.0783 24.4132C25.4111 24.018 25.5879 23.9088 25.9207 23.914C26.1287 23.914 26.2743 23.9556 26.4979 24.0752C26.6643 24.1636 26.8255 24.2364 26.8619 24.2364C26.8983 24.2364 26.9555 24.2728 26.9919 24.3144C27.0283 24.3612 27.1583 24.4184 27.2831 24.4496C27.4079 24.4808 27.5379 24.538 27.5691 24.5796C27.6003 24.6212 27.7251 24.6784 27.8447 24.7096C27.9591 24.7408 28.1151 24.8084 28.1879 24.8604C28.2607 24.9124 28.3907 24.9696 28.4843 24.9852C28.5779 25.006 28.7027 25.0632 28.7703 25.1152C28.8379 25.1672 28.9627 25.2244 29.0459 25.2452C29.1343 25.266 29.2643 25.344 29.3475 25.422C29.4723 25.5416 29.4879 25.5936 29.4879 25.9004C29.4879 26.1344 29.4463 26.3632 29.3579 26.618C29.2851 26.8208 29.2279 27.0236 29.2279 27.0652C29.2279 27.19 28.7963 27.6788 28.3907 28.0116C27.6887 28.5888 26.9035 28.906 26.0871 28.9424C25.8271 28.9528 25.5671 28.9528 25.5099 28.9372Z" fill="#F6FEFA"/>
</g>
</g>
<defs>
<clipPath id="clip0_645_358">
<rect width="44" height="44" fill="white"/>
</clipPath>
<clipPath id="clip1_645_358">
<rect width="26" height="26" fill="white" transform="translate(9 9)"/>
</clipPath>
</defs>
</svg>
